<?xml version="1.0" encoding="utf-8"?>
<!-- Generator: Adobe Illustrator 21.0.2, SVG Export Plug-In . SVG Version: 6.00 Build 0)  -->
<svg version="1.1" id="Layer_1" xmlns="http://www.w3.org/2000/svg" xmlns:xlink="http://www.w3.org/1999/xlink" x="0px" y="0px"
	 viewBox="0 0 100 100" style="enable-background:new 0 0 100 100;" xml:space="preserve">
<path d="M67.1,49.9l32-32c0.8-0.8,0.8-2,0-2.8L85.2,1.3c-0.8-0.8-2-0.8-2.8,0l-32,32l-32-32c-0.8-0.8-2-0.8-2.8,0L1.8,15.2
	c-0.8,0.8-0.8,2,0,2.8l32,32l-32,32c-0.8,0.8-0.8,2,0,2.8l13.9,13.9c0.8,0.8,2,0.8,2.8,0l32-32l32,32c0.8,0.8,2,0.8,2.8,0l13.9-13.9
	c0.8-0.8,0.8-2,0-2.8L67.1,49.9z"/>
</svg>
