<svg xmlns="http://www.w3.org/2000/svg"  xmlns:xlink="http://www.w3.org/1999/xlink">
  <defs>
    <polygon id="a" points="0 71.721 102.783 71.721 102.783 0 0 0"/>
  </defs>
  <g fill="none" fill-rule="evenodd">
    <rect width="128" height="128" fill="#FFFFFF"/>
    <g transform="translate(13 28)">
      <mask id="b" fill="white">
        <use xlink:href="#a"/>
      </mask>
      <path fill="#002048" d="M52.7855768,27.7061112 C52.4308465,28.0814485 52.2573278,28.5079101 52.2573278,29.0050935 L52.2573278,32.8794604 C52.2573278,33.3983716 52.4359751,33.8282414 52.8026722,34.1903716 C53.1676598,34.5520757 53.6057303,34.7293065 54.1399627,34.7293065 L55.5221286,34.7293065 C56.0520871,34.7293065 56.4884481,34.5520757 56.8577095,34.1903716 C57.2273983,33.8303716 57.4047635,33.4064663 57.4047635,32.8918154 L57.4047635,27.3542059 L53.9972158,27.1671763 C53.5121328,27.1710107 53.1270581,27.342703 52.7855768,27.7061112 Z M68.3825975,29.0089278 C68.3825975,28.4895905 68.2060871,28.063129 67.8381079,27.7022769 C67.4726929,27.3422769 67.0350498,27.1671763 66.4991079,27.1671763 L65.1160871,27.1671763 C64.5899751,27.1671763 64.1514772,27.3422769 63.7822158,27.7044071 C63.4133817,28.063555 63.2347344,28.4908686 63.2347344,29.0089278 L63.2347344,30.1685964 L68.3825975,30.1685964 L68.3825975,29.0089278 Z M46.4837718,67.6571645 C46.883805,68.6775195 49.543,67.5370225 49.4019627,65.9517444 C48.8083237,64.890916 46.1521203,65.8805964 46.4837718,67.6571645 Z M94.1167842,37.1952 C93.0701162,37.8120994 91.6823942,38.767271 90.3835685,38.7221112 C90.398527,39.2175905 90.2262905,39.7872 90.2673195,40.2814012 C91.6892324,40.1987503 93.4039046,39.2525254 94.1167842,37.1952 Z M90.8519834,33.4776142 C90.8519834,32.1419929 90.3989544,31.1429396 89.5001618,30.5043124 C88.8501079,30.0505846 87.9504606,29.7809041 86.7563444,29.6812118 C85.8772116,29.6015432 85.5476971,29.4123834 85.4096515,29.2901112 C85.1126183,29.0421586 85.0493651,28.4964071 85.0493651,28.0835787 C85.0493651,27.5974722 85.1403983,27.1620639 86.2319419,27.1560994 L90.3874149,27.4240757 L89.7544564,25.1320047 C86.3648589,24.9079101 86.2994689,24.9079101 86.2533112,24.9079101 C85.1527925,24.9079101 84.2689585,25.2376615 83.6244606,25.8920521 C83.053473,26.4718864 82.7645602,27.2080757 82.7645602,28.0835787 C82.7645602,30.2299456 83.8116556,31.1058746 84.690361,31.4637444 L87.5927386,32.0857562 C88.2757012,32.287271 88.566751,32.7035077 88.566751,33.4776142 C88.566751,33.870845 88.4552033,34.1601231 88.2162946,34.386774 C87.9773859,34.6164071 87.6897552,34.7241941 87.3136556,34.7293065 L83.1898091,34.4928568 L82.5252241,36.7133538 L83.1637386,36.7495669 C87.1285975,36.9770698 87.2405726,36.9770698 87.295278,36.9770698 C88.2551867,36.9770698 89.0911535,36.6511527 89.7882199,36.0099692 C90.4946888,35.3560047 90.8519834,34.5060639 90.8519834,33.4776142 Z M88.6684689,47.9854012 C88.3423734,51.0217562 87.5888921,54.6025846 87.5055519,56.6607621 C87.4961494,56.8920994 87.9312282,56.5129278 88.2162946,56.5376379 C88.4757178,54.7018509 89.4168216,49.7061586 89.3463029,47.935129 C89.3369004,47.707626 88.7697593,48.1660402 88.6684689,47.9854012 Z M89.5561494,55.7537325 C91.0293485,55.1095669 92.3063776,53.7360284 92.7807759,52.0911053 C91.7738548,52.1332828 90.1826971,52.0097325 89.9737054,52.3812355 C89.8065975,53.4501586 89.5685436,54.8062296 89.5561494,55.7537325 Z M90.2250083,50.4879337 C91.4174149,50.4236024 93.2932116,50.5445964 93.2359419,50.2808805 C93.0701162,49.4177325 92.6927344,49.1297325 92.274751,48.0182059 C92.0131909,47.3254722 92.4427137,46.2893538 91.1246556,46.9710107 C90.4549419,47.7459692 90.2874066,49.1041704 90.2250083,50.4879337 Z M83.4894066,16.7403834 C84.1185187,17.1110343 85.4981203,16.123058 85.6652282,15.6301349 C85.7075394,14.1471053 84.62839,12.8609041 83.0718506,12.5017562 C81.7315685,14.2710817 82.383332,15.6995787 83.4894066,16.7403834 Z M82.7226763,10.2352473 C81.830722,9.79046627 81.6909668,9.08665562 80.9374855,8.30445444 C80.8977386,8.69768521 80.3305975,9.41470296 80.3105104,9.99155503 C81.0212531,10.4444308 82.0221909,11.0753893 82.7226763,10.2352473 Z M81.6448091,29.0089278 C81.6448091,27.9438391 81.2704191,26.9916497 80.5331784,26.1783479 C79.7745685,25.3445964 78.8283361,24.919413 77.6876432,24.919413 L77.6855062,24.919413 L71.9260539,25.171626 L71.9260539,36.7529751 L74.2108589,36.7529751 L74.2108589,27.3529278 L77.4961743,27.1663243 L77.6457593,27.1663243 C78.1205851,27.1663243 78.5001037,27.3401467 78.836029,27.7090935 C79.1894772,28.0950817 79.3604315,28.5185609 79.3604315,29.0089278 L79.3604315,36.7529751 L81.6448091,35.8642651 L81.6448091,29.0089278 Z M73.1150415,60.199413 C72.1307718,60.2765254 70.6498797,60.1197444 70.0947054,60.6254485 C70.3682324,62.1336142 71.4123361,62.8970698 72.6530373,63.4696615 C72.9885353,62.5042651 72.9560539,61.1959101 73.1150415,60.199413 Z M69.4356763,36.7559574 L70.204971,34.459626 L65.0998465,34.7288805 L64.9925726,34.7288805 C64.4989419,34.7288805 64.109166,34.5567621 63.7638382,34.1865373 C63.4073983,33.8073657 63.2347344,33.3813302 63.2347344,32.8832947 L63.2347344,32.4176379 L70.6669751,32.4176379 L70.6669751,29.0089278 C70.6669751,27.8846201 70.2549751,26.910703 69.4437967,26.1165728 C68.6291992,25.3215905 67.6398008,24.9185609 66.4991079,24.9185609 L65.1160871,24.9185609 C63.976249,24.9185609 62.9864232,25.3215905 62.1748174,26.1165728 C61.3610747,26.910703 60.9482199,27.8846201 60.9482199,29.0089278 L60.9482199,32.887555 C60.9482199,33.9705373 61.333722,34.9291172 62.090195,35.7351763 C62.8637635,36.559129 63.8253817,36.9770698 64.9476971,36.9770698 L64.9643651,36.9770698 L69.4356763,36.7559574 Z M64.3249959,59.7716734 C63.6065602,59.7303479 62.5304025,59.9105609 62.3214108,60.2415905 C62.4043237,60.8171645 62.8218797,61.3096615 63.1150664,61.7220639 C63.9527427,61.5154367 64.7891369,59.8700876 64.3249959,59.7716734 Z M65.6212573,13.1212118 C65.0224896,12.9542059 64.6955394,12.5222059 64.1886598,12.2670107 C64.0788216,12.6662059 63.9967635,14.2352947 64.2455021,14.971058 C64.3305519,15.2173065 64.7946929,15.7813775 65.2874689,15.9649988 C65.8075975,15.427768 65.5272324,14.0857562 65.6212573,13.1212118 Z M63.0928423,8.28570888 C63.7112697,8.71344852 65.4011535,8.99633609 65.2494315,9.37422959 C65.1075394,9.65413491 64.2245602,9.51439527 63.9941992,9.82710533 C63.7659751,10.1385373 63.9112863,10.9799574 63.9129959,11.4132355 C65.7097261,11.3489041 66.1281369,10.3613538 67.114971,9.99155503 C67.4256805,10.0328805 69.0565851,11.2666793 70.2656598,11.9824189 C70.6050041,12.3377325 69.3916556,12.8719811 69.3501992,13.2013065 C69.324556,13.5319101 69.4348216,14.7239574 69.6429585,14.7648568 C70.004527,14.8364308 70.5626929,13.8599574 71.10761,13.4888805 C71.3691701,13.3103716 72.026917,13.6946556 72.7389419,13.7785846 C72.9060498,13.8599574 72.111112,14.683484 72.5436266,14.7529278 C73.4881494,14.4244544 74.3083029,15.6203361 74.8570664,14.7529278 C74.2860788,13.9017089 74.6049087,12.942703 75.0395602,12.1732828 C73.8783527,11.9768805 74.1582905,13.4650225 73.1351286,13.4058036 C72.3624149,12.2137562 70.6050041,11.9662296 70.8520332,11.4132355 C71.5593568,11.0609041 72.2106929,10.6523361 72.6090166,9.99155503 C72.6966307,9.66180355 74.1185436,11.2666793 75.2070954,11.6373302 C75.9981867,11.9078627 76.7136307,11.1026556 77.8056017,10.5603124 C76.214444,5.78871479 66.1430954,2.86909349 63.0928423,8.28570888 Z M77.1790539,13.6895432 C77.2564108,14.2710817 78.7206349,15.1768331 79.1813568,15.1112237 C79.2228133,14.7648568 78.8873154,12.9128805 78.3659046,11.6986793 C77.8838133,11.9662296 77.1999959,12.6508686 77.1790539,13.6895432 Z M80.3558133,13.9741349 C80.7263568,13.2848095 81.0926266,12.5925018 81.2580249,11.6986793 C80.8554274,11.3910817 80.4357344,11.3097089 80.1049378,11.4132355 C79.716444,11.8729278 79.4420622,13.9204544 80.3558133,13.9741349 Z M90.8532656,20.2790343 C91.6058921,20.6096379 92.0657593,21.0199101 92.4850249,21.6372355 C92.8786473,21.2065136 93.3380871,20.694845 93.4457884,20.3212118 C93.3765519,19.7550107 91.1182448,19.1922178 90.8532656,20.2790343 Z M60.1045602,10.6502059 C59.642556,10.4026793 59.4117676,9.90038343 59.1002033,10.0328805 C58.2586805,10.3916024 57.8889917,11.7259456 57.3829668,12.295555 C57.0423402,12.6819692 56.6722241,11.3489041 55.7986473,12.5520284 C56.2542407,12.9959574 56.8004398,13.0905373 57.2171411,13.1608331 C57.5509295,13.2153657 59.8237676,11.5789633 60.1045602,10.6502059 Z M59.6908506,25.1724781 L54.1720166,24.9202651 L53.9707178,24.9185609 C52.8479751,24.9185609 51.887639,25.3360757 51.1153527,26.1591763 C50.3567427,26.9652355 49.9725228,27.9250935 49.9725228,29.0080757 L49.9725228,32.887555 C49.9725228,34.0105846 50.3840954,34.9853538 51.1969834,35.779484 C52.009444,36.5731882 52.9992697,36.9770698 54.1399627,36.9770698 L55.5221286,36.9770698 C56.2166307,36.9770698 56.8461701,36.8364781 57.4047635,36.5578509 L57.4047635,37.4516734 C57.4047635,37.9722888 57.2273983,38.3996024 56.8577095,38.7617325 C56.4884481,39.1230107 56.050805,39.2989633 55.5221286,39.2989633 L54.3669046,39.2989633 C53.8066017,39.2989633 53.3574191,39.1460166 52.9958506,38.8345846 C52.6543693,38.5410462 52.4962365,38.1725254 52.4962365,37.6808805 L52.4962365,37.0861349 L50.2221162,38.0131882 C50.2977635,38.9879574 50.7063444,39.8127621 51.4410207,40.4705609 C52.2380954,41.1845964 53.2236473,41.5467266 54.3669046,41.5467266 L55.5221286,41.5467266 C56.6641037,41.5467266 57.6530747,41.1449751 58.4651079,40.3495669 C59.2788506,39.5541586 59.6908506,38.5815195 59.6908506,37.4584899 L59.6908506,25.1724781 Z M56.7756515,61.2683361 C55.9610539,61.8865136 54.5810249,63.7789633 54.831473,63.8211408 C55.3037344,63.7129278 56.3115104,63.5075787 56.6884647,63.1744189 C57.0671286,62.8408331 56.8158257,61.8852355 56.7756515,61.2683361 Z M53.936527,64.0005018 C53.1227842,63.1075314 51.1085145,62.7100402 50.0208174,62.3807148 C50.1738216,61.6321704 51.4427303,61.1869633 51.3179336,60.6105373 C50.5315436,60.4124308 49.4301701,60.0971645 49.0583444,60.1167621 C48.7955021,60.1303953 47.9710747,61.1047385 47.8150788,61.4779456 C48.6254025,63.2183006 51.4388838,64.8295669 53.936527,64.0005018 Z M47.2829834,39.4970698 L48.7155809,38.9402414 L48.7155809,25.1413775 L46.4277842,25.1413775 L46.4277842,34.578916 L43.1488797,34.7271763 L42.9924564,34.7271763 C42.5197676,34.7271763 42.1415311,34.555058 41.8043237,34.183555 C41.4525851,33.7924544 41.2803485,33.367271 41.2803485,32.8794604 L41.2803485,26.0309396 L38.9946888,25.1413775 L38.9946888,32.8849988 C38.9946888,33.9500876 39.3686515,34.902703 40.1076017,35.7164308 C40.8640747,36.5535905 41.8132988,36.9779219 42.9527095,36.9779219 L42.9569834,36.9779219 L46.4277842,36.8292355 L46.4277842,39.5690698 L44.9968963,40.1254722 L44.9968963,42.8687148 L47.2829834,41.9787266 L47.2829834,39.4970698 Z M45.2127261,61.4779456 L43.4779668,61.4779456 C43.9416805,62.7168568 44.4190705,64.7750343 44.2797427,65.7442651 C45.2708506,65.0012592 45.252473,63.2515314 45.2127261,61.4779456 Z M41.606444,39.4041941 L36.0867552,39.1498509 L35.8854564,39.1498509 C34.7639959,39.1498509 33.8040871,39.5677917 33.0300913,40.3900402 C32.2710539,41.1982296 31.886834,42.1559574 31.886834,43.2393657 L31.886834,47.1179929 C31.886834,48.2427266 32.3001162,49.2162178 33.1121494,50.010774 C33.92461,50.8057562 34.9140083,51.2087858 36.0551286,51.2087858 L37.437722,51.2087858 C38.1326515,51.2087858 38.7617635,51.067768 39.3207842,50.7899929 L39.3207842,51.6846675 C39.3207842,52.2044308 39.1421369,52.6313183 38.7728755,52.9925964 C38.4040415,53.3538746 37.9668257,53.5302533 37.437722,53.5302533 L36.2829253,53.5302533 C35.7217676,53.5302533 35.2734398,53.3773065 34.9105892,53.0658746 C34.5699627,52.7723361 34.4109751,52.4046675 34.4109751,51.9121704 L34.4109751,51.318703 L32.1377095,52.2453302 C32.2125021,53.2192473 32.621083,54.0432 33.3557593,54.702703 C34.1532614,55.4163124 35.1379585,55.7771645 36.2829253,55.7771645 L37.437722,55.7771645 C38.5779876,55.7771645 39.568668,55.3762651 40.3811286,54.5825609 C41.1935892,53.7858746 41.606444,52.8123834 41.606444,51.6893538 L41.606444,39.4041941 Z M39.771249,63.5736142 C38.3480539,63.4918154 35.2524979,63.9033657 35.2524979,63.9033657 C35.2524979,64.3144899 35.3371203,64.2318391 35.3371203,64.2318391 C36.9684523,64.1491882 39.6045685,64.2735905 39.771249,64.2735905 C39.9387842,64.2735905 39.771249,63.5736142 39.771249,63.5736142 Z M35.0653029,63.1842178 C36.5919253,63.0389396 37.5479876,63.1117917 39.6879087,63.0389396 C39.6434606,61.3403361 34.8392158,61.2061349 35.0653029,63.1842178 Z M34.1656556,61.7633893 C33.875888,61.7633893 33.3523402,61.7629633 33.0634274,61.7629633 C32.9535892,63.4811645 32.7822075,66.0292828 32.2407095,67.3193183 C32.9937635,67.0308923 33.8519544,66.883484 34.4310622,66.883484 C34.6203942,64.831271 34.3494315,63.4538982 34.1656556,61.7633893 Z M30.7046846,43.2397917 C30.7046846,42.175555 30.330722,41.2237917 29.5926266,40.4096379 C28.8340166,39.5741822 27.888639,39.1502769 26.7466639,39.1502769 L26.7436722,39.1502769 L20.9850747,39.4016379 L20.9850747,50.9855432 L23.2707344,50.9855432 L23.2707344,41.5837917 L26.5560498,41.3984663 L26.7060622,41.3984663 C27.1800332,41.3984663 27.5582697,41.5714367 27.896332,41.9408095 C28.2480705,42.3276497 28.4207344,42.751129 28.4207344,43.2397917 L28.4207344,50.9855432 L30.7046846,50.3925018 L30.7046846,43.2397917 Z M30.2747344,60.0349633 C29.9725726,59.5211645 28.8579502,59.1215432 28.4344108,58.759413 C28.4754398,59.0874604 28.1724232,59.7209751 27.931805,59.827484 C27.471083,60.0349633 26.2577344,59.7052118 25.579473,59.4862296 C25.630332,60.6531408 25.6863195,61.8128095 26.1107137,62.6154604 C27.0714772,62.227768 27.7561494,61.5640047 28.1651577,60.6254485 C28.5151867,61.0318864 29.3263651,61.2389396 30.064888,61.2700402 C30.3273029,60.9079101 30.4456888,60.3285018 30.2747344,60.0349633 Z M22.7625726,27.1671763 C23.2361162,27.1671763 23.6139253,27.3405728 23.9519876,27.7090935 C24.3037261,28.0950817 24.4759627,28.5185609 24.4759627,29.0080757 L24.4759627,35.8646911 L26.7603402,36.7534012 L26.7603402,29.0080757 C26.7603402,27.943413 26.3859502,26.9920757 25.6474274,26.1792 C24.8896722,25.3445964 23.9421577,24.9185609 22.830527,24.9185609 C22.6523071,24.9185609 22.1347427,24.9338982 19.7909585,25.0595787 L19.7909585,21.3752237 L17.5065809,22.2635077 L17.5065809,36.7534012 L19.7909585,36.7534012 L19.7909585,27.3086201 C21.4496432,27.2148923 22.4488714,27.1671763 22.7625726,27.1671763 Z M19.7918133,39.3735195 L17.5065809,40.2626556 L17.5065809,50.9855432 L19.7918133,50.9855432 L19.7918133,39.3735195 Z M20.15039,18.3456852 C20.3598091,18.7163361 20.9637054,19.1308686 21.5312739,19.1679337 C22.1591037,19.2109633 23.9472863,18.1539692 24.2511577,17.6461349 C24.1665353,17.3577089 20.1931286,17.9754604 20.15039,18.3456852 Z M18.8122448,16.410632 C21.2615934,15.9275077 24.7110249,16.2474604 26.7658963,15.3902769 C27.2590996,15.1849278 27.4565519,14.0887385 27.5975892,13.4888805 C26.8334232,13.7419456 25.3982614,14.5062533 24.8392407,13.6895432 C24.6067427,12.5017562 26.1124232,11.4728805 26.6979419,10.6097325 C23.6857261,10.2799811 21.8667718,10.938632 19.5657261,11.8431053 C19.1528714,13.1642414 18.8122448,15.2995314 18.8122448,16.410632 Z M26.4047552,12.7901822 C26.6979419,12.9959574 27.4509959,12.6662059 27.4509959,12.6662059 C27.4509959,12.6662059 27.7027261,12.1732828 27.4095394,11.5964308 C27.4095394,11.5964308 26.1124232,12.583555 26.4047552,12.7901822 Z M28.0172822,32.887555 C28.0172822,33.9517917 28.392527,34.903555 29.1306224,35.7164308 C29.8892324,36.5535905 30.8371743,36.9770698 31.948805,36.9770698 L31.9641909,36.9770698 L37.7381743,36.7248568 L37.7381743,25.1413775 L35.4525145,25.1413775 L35.4525145,34.542703 L32.1671992,34.7293065 L32.0167593,34.7293065 C31.5432158,34.7293065 31.165834,34.555058 30.8290539,34.182703 C30.474751,33.7950107 30.3037967,33.367271 30.3037967,32.8794604 L30.3037967,25.1413775 L28.0172822,26.3270343 L28.0172822,32.887555 Z M29.8990622,10.6906793 C30.0234315,10.8662059 30.5149253,11.4809751 30.4841535,11.8852828 C31.4885104,11.5964308 33.3920871,10.8964544 33.9352946,10.4853302 C32.3048174,10.2799811 30.8606805,10.0328805 29.8990622,10.6906793 Z M30.609805,15.0123834 C30.6521162,15.9177089 32.9407676,13.9306793 32.9535892,13.6546083 C32.7027137,13.5297799 30.6226266,14.7350343 30.609805,15.0123834 Z M35.2888257,11.1294959 C35.1067593,11.0856142 34.8486183,10.5258036 34.5964606,10.6365728 C33.5391079,11.1026556 31.7923817,12.1468686 30.735029,12.6662059 C30.5692033,12.7480047 30.5474066,13.9430343 30.6140788,14.2587266 C32.1257427,13.1689278 33.8634938,12.3057799 35.2888257,11.1294959 Z M36.2577095,12.0902059 C35.209332,13.0108686 35.164029,14.4636497 35.7935685,15.9649988 C36.5453402,15.1133538 37.6710747,12.6576852 36.2577095,12.0902059 Z M31.0696722,9.45730651 C32.6185187,9.04447811 35.1311203,9.0828213 36.4248174,9.04447811 C36.6782573,9.0372355 38.3694232,8.22180355 38.8070664,8.00026509 C38.8194606,7.14691598 38.8335643,6.2939929 38.8459585,5.43979172 C38.4946473,5.50582722 37.6197884,5.59785089 37.2398423,5.99960237 C36.0410249,7.27302249 33.5391079,8.26227692 31.0696722,9.45730651 Z M41.6380705,11.9824189 C43.5365187,11.1844544 44.4156515,11.0195787 45.482834,10.8657799 C45.1883651,10.3715787 45.0618589,9.6132355 44.7084108,9.25153136 C44.4870249,8.95884497 43.8587676,9.76021775 43.243332,9.82710533 C42.6296058,9.89356686 41.5290871,9.45730651 41.975278,8.8536142 C43.3745394,7.70587456 46.2149461,8.63420592 46.8423485,8.50937751 C47.9014108,8.30147219 48.7711411,6.83505799 48.7036141,4.76495148 C46.9038921,5.42360237 44.2079419,7.2359574 41.4136929,7.71652544 C41.4030083,8.88045444 40.4396805,11.0259692 41.6380705,11.9824189 Z M41.435917,6.2939929 C42.6372988,5.58762604 43.3634274,5.06317633 44.5417303,4.27032426 C43.3830871,4.32400473 42.1975187,4.68144852 41.5290871,5.17607574 C41.3918963,5.27704615 41.4030083,6.08182722 41.435917,6.2939929 Z M45.4405228,4.27032426 C44.4331743,4.86634793 43.127083,6.01408757 43.2228174,6.12315266 C43.9139004,5.99960237 45.6486598,5.30090414 47.6163444,4.27032426 C46.9462033,4.18980355 45.6486598,4.14762604 45.4405228,4.27032426 Z M46.8004647,3.44807574 C47.4693237,3.48812308 48.7036141,3.65342485 48.954917,3.57162604 C50.5328257,3.05441893 52.3158797,1.8048568 52.365029,0.937022485 C52.3013485,0.286892308 48.6583112,1.94289231 46.8004647,3.44807574 Z M45.8807303,11.5955787 C44.8220954,11.4209041 43.3604357,12.163058 42.0308382,12.6261586 C42.0227178,13.099484 42.1928174,13.4999574 42.1851245,13.9741349 C43.9442448,14.3217799 46.228195,14.2859929 47.6783154,13.5719574 C46.968,12.7071053 46.192722,11.647555 45.8807303,11.5955787 Z M57.4680166,7.93380355 C57.7612033,7.76935385 57.6547842,6.4247858 58.0723402,6.50488047 C58.8912116,6.65782722 59.9789087,6.82185089 59.9357427,6.49337751 C58.2620996,6.12315266 57.7612033,5.4227503 57.007722,4.80627692 C56.4657967,5.36480947 57.0983278,7.41744852 57.4680166,7.93380355 Z M17.0129502,53.6981112 C16.051332,53.0394604 15.1392905,52.1413775 14.6076224,51.6501586 C14.2640041,51.7881941 13.3737593,52.3288331 12.788668,52.4528095 C14.0951867,52.843484 15.2358797,53.5328095 17.0129502,53.6981112 Z M14.1451909,50.9540166 C13.5720664,50.2923834 13.3737593,49.6230817 11.9095353,48.7599337 C12.2330664,50.203768 12.0005685,50.6643124 11.3829959,51.0238864 C11.2817054,51.0826793 10.9227012,50.9702059 10.3341909,50.8210935 C9.7820083,50.6796497 9.75508299,49.5830343 9.81790871,49.1697799 C9.88073444,48.7599337 10.4671079,48.6564071 10.3824855,48.5524544 C10.2991452,48.451484 9.84697095,48.3935432 9.84697095,48.3935432 C9.32897925,48.5375432 9.17982158,49.7057325 9.24179253,50.1688331 C9.54908299,51.1406201 10.0204896,51.9087621 11.8146556,51.9901349 C12.5053112,52.0212355 13.7370373,51.3089041 14.1451909,50.9540166 Z M14.7713112,47.8243598 C14.0203942,47.1512237 13.1899834,46.5560521 13.0762988,45.2634604 C11.1992199,44.9503243 9.46617012,44.899626 8.55754772,46.158987 C10.2611079,46.8461822 12.5728382,48.5490462 14.7713112,47.8243598 Z M8.98792531,47.8243598 C8.4370249,47.6058036 8.02929876,47.2581586 7.76773859,47.1537799 C6.42916598,48.5933538 6.52703734,50.9540166 8.01861411,51.5994604 C7.76987552,49.8096852 8.39556846,48.8421586 8.98792531,47.8243598 Z M8.06092531,45.7960047 C8.81355187,44.5613538 10.4149668,44.3180876 9.64054357,42.9884308 C8.06092531,42.4209515 7.3493278,43.0378509 6.052639,43.6965018 C6.35437344,44.7125964 7.09845228,45.3018036 8.06092531,45.7960047 Z M5.55046058,42.7093775 C7.97758506,41.6396024 8.10280913,39.9516497 10.6124191,40.4876024 C11.9762075,39.5388213 11.9928755,37.1952 11.7415726,34.1899456 C9.85893776,35.3415195 7.93527386,36.9877207 5.17350622,36.9063479 C4.8803195,39.1285491 5.00725311,41.3916497 5.55046058,42.7093775 Z M4.17598755,36.1612118 C4.62944398,35.2605728 5.01622822,34.2023006 5.92656017,33.2846201 C6.12016598,33.0903479 6.2949668,33.0877917 6.47104979,33.2023953 C6.13597925,34.1072947 4.96494191,35.6299456 5.42523651,36.0832473 C7.09845228,35.8369988 9.21016598,34.2900639 9.99014523,33.1649041 C10.2880332,32.7354604 9.98929046,32.275768 10.1157967,31.7738982 C10.2273444,31.3261349 10.7799544,30.8438627 10.779527,30.3215432 C9.93885892,30.0173538 8.16691701,29.4681941 7.89296266,29.5806675 C6.59584647,30.1161941 0.69706639,36.3703953 4.17598755,36.1612118 Z M9.35846888,28.4273893 C10.1444315,28.5402888 11.1975104,28.963342 12.0347593,29.1277917 C12.3399129,28.9058272 12.5583071,28.2940402 13.0587759,27.6264426 C12.1180996,27.3167148 11.1560539,27.0295669 10.9940747,26.9733302 C10.3491494,26.7492355 9.90124896,27.5642414 9.35846888,28.4273893 Z M12.788668,40.8152237 C12.8070456,42.0741586 11.8809004,42.2535195 11.8676515,43.2027266 C12.5788216,43.2406438 13.4870166,43.2014485 13.8336266,42.8734012 C13.8584149,42.0089751 13.685751,41.2519101 12.788668,40.8152237 Z M101.813577,36.2894485 C101.473378,36.4683834 100.517315,36.823271 99.9621411,36.4458036 C99.2060954,36.0717444 99.1082241,35.5818036 99.4279087,34.807271 C100.055739,34.0250698 101.729809,35.5481467 101.310971,34.3952947 C101.192585,34.0642651 99.3026846,34.2725964 98.8005062,34.6432473 C97.2234523,35.8063243 96.2088382,38.3250462 95.2771369,40.1437917 C95.8592365,40.0283361 98.4239793,39.7463006 98.4239793,40.1165254 C97.9243651,41.2540402 96.9730041,42.4209515 95.7472614,42.8329278 C95.4228755,42.8376142 96.0404481,41.3503243 94.9766846,40.9984189 C92.9316432,42.9023716 90.6494025,44.5715787 88.8150622,46.6864189 C93.4039046,45.8769515 94.7847884,43.6965018 95.2164481,44.1267976 C95.8720581,44.4369515 94.3317593,45.1684544 94.318083,46.1180876 C99.7689627,51.1303953 89.9749876,57.2222769 85.7353195,58.9170462 C86.4054606,59.5117917 85.9225145,61.6406911 85.0378257,61.6398391 C84.8279793,61.2700402 84.7378008,60.642916 84.5677012,60.4239337 C83.3740124,58.8842414 78.9839046,58.4390343 78.7202075,59.4994367 C78.2637593,60.7059692 77.8838133,63.739342 78.7172158,64.0375669 C79.952361,64.1619692 81.4084647,63.1296852 82.1093776,62.4629396 C82.2363112,62.3410935 82.6936141,61.7633893 83.0902282,61.7629633 C81.8409793,63.8850462 80.8832075,65.9278864 77.0888755,65.5073893 C75.3733485,64.9786793 75.8332158,61.6010698 75.6062739,59.4862296 L73.8702324,59.4862296 C73.7163734,60.8738272 74.1228174,62.8191053 73.5159295,63.7546793 C74.2826598,63.9144426 74.9126266,62.791413 75.2900083,63.4087385 C74.2296639,64.5641467 72.111112,66.5371172 71.742278,66.3147266 C69.4963651,65.2206675 67.5573154,63.8309396 66.9051245,61.1937799 C66.4452573,61.8021586 63.4915934,63.4918154 64.1189959,63.6153657 C64.4963776,63.7789633 66.586722,63.366987 67.1730954,63.655413 C66.8333237,64.9522651 65.0652282,66.7565254 64.9152158,66.331768 C64.689556,64.3076734 63.1573776,63.1616379 61.095668,62.9004781 C60.957195,64.9194604 60.3964647,65.6313657 61.3191909,67.1680757 C58.9694232,67.4373302 57.1692739,68.2570225 55.8289917,69.5338509 C55.4922116,69.8546556 55.1673983,70.6534722 54.904556,70.5810462 C52.6727469,69.3012355 50.3981992,71.8041941 49.681473,71.718987 C50.7161743,69.1244308 53.6724025,66.247413 57.2564606,68.0201467 C57.7167552,66.3373065 56.3068091,65.0519574 56.9662656,64.0678154 C53.9125934,65.2611408 49.8977303,65.6535195 47.192805,64.3225846 C46.447444,65.5039811 45.5760041,66.3100402 44.1224647,66.7842178 C44.1040871,67.4526675 44.4562531,68.1833183 44.2361494,68.5897562 C42.4483942,69.211342 42.0684481,69.0089751 41.1017012,69.5334249 C39.6451701,70.3228686 38.6651743,71.8915314 38.3903651,71.5166201 C38.8972448,68.6523834 41.8205643,68.6809278 41.4012988,64.891768 C39.2613776,65.6573538 36.7162946,64.639555 35.3242988,65.1763598 C35.3153237,65.7442651 35.3072033,66.3147266 35.2982282,66.883484 C36.3410498,66.9490935 37.2312946,67.1650935 37.9304979,66.9490935 C38.673722,66.7181822 39.3536929,66.0846675 39.6879087,66.331768 C38.611751,70.2627976 31.9282905,68.6877444 28.6075021,69.4439574 C28.4754398,69.3353183 28.3087593,69.2479811 28.4109046,69.1495669 C29.579805,68.0103479 31.2342158,66.6474604 30.4213278,64.3225846 C29.306278,64.0759101 29.3827801,65.0174485 28.6733195,65.1763598 C28.0822448,64.254845 27.3095311,63.5097089 26.1013112,63.1842178 C25.5576763,66.2214249 20.9649876,67.3367858 17.4736722,66.9490935 C17.114668,66.9098982 17.1386017,66.7019929 17.084751,66.5984663 C19.4353734,66.4438154 21.3017676,65.8039101 22.6104232,64.6071763 C22.7040207,63.2042414 21.7821494,61.9704426 21.2970664,61.4029633 C18.8477178,63.4700876 12.5668548,64.771626 12.8613237,59.203342 C13.7084025,58.5123124 17.1283444,57.4540402 17.7766888,59.203342 C17.6963402,59.9876734 16.6919834,59.8526201 16.3133195,60.3408568 C17.3950332,61.1170935 19.4610166,60.883626 19.9418257,59.7052118 C19.1366307,57.8966911 15.3816183,56.2905373 14.4430788,56.2210935 C11.2684564,55.9850698 7.71858921,57.2359101 6.30351452,58.8420639 C6.20350622,58.9558154 6.00348963,58.7952 5.92570539,58.9170462 C7.39078423,56.7438391 9.56019502,56.0021112 12.0548465,55.2199101 C9.65037344,54.1092355 8.64259751,52.5256615 8.35282988,52.4634604 C6.30009544,52.0246438 5.09016598,49.3355077 7.13948133,46.8645018 C3.75116598,45.3840284 2.64295436,40.6605728 3.95417427,36.7303953 C3.25197925,36.5697799 2.46986307,36.486703 2.52585062,35.5924544 C3.06777593,32.3307266 5.75987967,30.5682178 6.80569295,29.2922414 C4.70380913,28.8823953 2.05145228,28.1854012 0.721427386,29.3565728 C0.565004149,29.4929041 0.927854772,30.1468686 0.806477178,30.331768 C0.685526971,30.5170935 0.23719917,30.4864189 0.00213692946,30.4727858 C-0.138900415,27.0295669 6.63901245,27.811342 8.52036515,28.1406675 C8.730639,28.1773065 9.39949793,27.2762414 10.1794772,26.7739456 C9.19221577,25.530774 8.36821577,24.9402888 8.49643154,23.3605491 C8.53062241,22.9536852 9.24392946,22.0066083 9.90124896,21.1234367 L10.2816224,21.1745609 C10.0969917,21.5009041 9.98629876,21.9354604 9.95680913,22.5072 C10.2145228,23.6540876 11.9338963,24.3578982 13.6942988,23.9297325 C13.4241909,22.5817562 12.8420913,21.6879337 13.7460124,20.5163361 C12.2860622,20.8771882 11.7757635,21.1954367 10.8423527,20.9393893 L10.1418672,20.8384189 C11.0184357,19.7963361 11.6586598,18.8394604 12.5048838,18.1407621 C12.6749834,17.9997444 13.6622448,18.8965491 13.8725187,18.8645964 C13.9524398,18.8522414 14.6319834,18.3039337 14.2315228,18.1603598 C13.5404398,17.9141112 13.0391162,17.1736615 12.8083278,16.2879337 C12.6472033,15.6706083 13.8549959,14.6839101 14.1058714,14.4772828 C15.4098257,14.3337089 14.5088963,16.135413 15.8402033,15.9649988 C16.2145934,14.2208095 16.6223195,12.3125964 17.1176598,10.6906793 C16.4894025,9.71377988 14.9580788,11.5320994 14.184083,10.8453302 C13.7293444,10.5258036 15.903029,8.68234793 17.0334647,8.83912899 C17.3437469,8.88173254 16.4483734,10.1977562 17.745917,9.62090414 C17.8138714,9.31756686 18.163473,8.79737751 18.163473,8.79737751 C16.7505353,8.38625325 21.9911411,6.77626509 22.1385892,7.02847811 C22.5091328,7.74038343 21.1761162,8.18133018 21.0090083,9.04533018 C21.7509502,8.5259929 25.1080664,6.20537751 25.2243154,7.43150769 C25.2315809,8.45271479 22.2287676,8.58180355 20.5897427,9.86843077 C20.4508423,9.97664379 19.9593485,10.6732118 19.7952324,11.0613302 C22.5146888,10.1129751 25.5700705,8.63207574 28.3087593,9.33290414 C30.609805,7.5635787 35.6516763,5.21782722 35.1012033,4.58729467 C33.0989004,5.01247811 31.5513361,6.53427692 31.3414896,6.45205207 C33.057444,4.47737751 38.6010664,2.62497515 37.9518672,5.05337751 C40.1802573,4.54043077 44.9994606,3.65512899 45.482834,3.53030059 C46.0721992,3.37777988 49.2981079,1.06099882 51.863278,0.155673373 C52.6154772,-0.0914272189 53.4518714,-0.0505278107 53.6728299,0.320975148 C54.0587593,1.51387456 51.5482946,3.20097515 49.8562739,4.01811124 C51.402556,4.20130651 52.5590622,5.00566154 52.4684564,6.32850178 C52.0996224,8.01006391 49.9267925,9.18805207 47.469751,9.33290414 C47.44539,9.81006391 47.7855892,10.3306793 48.0497137,10.3898982 C48.4561577,10.4793657 49.8682407,9.94724734 50.4392282,9.96428876 C50.6396722,9.97153136 50.5200041,10.4163124 50.4170041,10.4738272 C49.9024315,10.7618272 48.8343942,10.5709633 48.5574481,10.8138036 C48.1753651,11.1486675 49.2062199,11.778774 49.4357261,12.4191053 C51.3192158,11.0613302 52.0295311,10.2382296 53.367249,8.9784426 C53.8382282,8.53493964 53.7442033,6.82185089 53.535639,5.58762604 C53.8326722,5.61063195 52.5915436,4.97967337 52.8654979,4.97839527 C55.7644564,4.96902249 58.3886058,4.1795787 59.994722,2.88059645 C60.6828133,4.43946036 62.5778423,4.39856095 64.0181328,4.58729467 C62.5727137,5.87392189 59.0890913,6.87041893 58.3454398,8.85574438 C58.2749212,9.04149586 58.9578838,9.44196923 59.2254274,9.41470296 C60.3122697,8.83912899 60.6469129,7.8515787 61.2614938,7.68073846 C61.6303278,7.57763787 61.7927344,7.91207574 62.5722863,8.1395787 C65.8229834,1.60248994 75.4861784,5.76911716 79.3061535,8.92177988 C79.5805353,8.30360237 79.8288465,7.69735385 79.7673029,7.27472663 C79.6715685,6.61863195 78.5193361,6.11676213 78.0184398,5.86071479 C77.1948672,5.43936568 77.5081411,6.49337751 76.7277344,5.43979172 C76.3358216,4.31250178 79.0330539,6.04604024 80.0164689,6.49337751 C80.1258797,5.89181538 80.3784647,5.17905799 80.9780871,5.15221775 C81.5781369,5.12495148 82.7696888,5.86582722 82.9047427,6.36940118 C82.87739,6.54109349 82.3209336,6.03879763 81.9008133,6.16447811 C81.6183112,6.2484071 81.2764025,7.07406391 81.3229876,7.43150769 C81.9841535,8.18047811 82.4149585,9.15311716 83.3650373,9.62047811 C83.533,9.7044071 83.6586515,9.37508166 83.9078174,9.49777988 C84.7788299,9.92253728 86.5212822,11.2385609 87.5064066,11.6786556 C87.7461701,11.7855905 88.0154232,11.1162888 88.3000622,11.0195787 C88.4757178,10.375413 86.3952033,10.0243598 87.3649419,9.42279763 C88.7872822,9.44665562 90.3019378,10.7498982 89.9749876,11.2666793 C88.8334398,12.1596497 86.8790041,12.8719811 85.1228755,12.3377325 C86.2507469,13.2336852 86.761473,14.3809988 87.2551037,14.2297562 C88.4684523,13.8599574 90.1852614,13.3525491 91.0614025,14.2710817 C91.4028838,14.6289515 90.9366058,15.0946083 90.1425228,15.3408568 C89.9369502,15.4350107 89.4864855,15.0865136 89.0958548,14.9297325 C88.4492199,14.671129 87.8363485,14.5492828 87.840195,14.971058 C88.0077303,16.1967621 87.2068091,16.0050462 87.2474108,17.1025136 C87.8829336,17.6866083 88.3829751,16.7825609 88.8030954,16.699484 C89.2206515,16.6176852 90.1797054,16.782987 90.3506598,17.5230107 C90.5250332,18.1109396 88.4257137,17.6866083 89.5138382,18.9212592 C90.8712158,18.4798864 92.233722,18.426632 93.7402573,18.9630107 C94.6595643,18.1812355 92.0101992,17.2358627 92.5251992,16.699484 C92.610249,16.4119101 93.0359253,15.883626 93.4039046,16.123058 C95.087805,17.2120047 94.8946266,20.3173775 93.4851079,21.9938272 C93.136361,22.4079337 93.2376515,23.3247621 93.5034855,23.9297325 C93.8231701,24.3131645 95.1604606,23.4896379 95.7472614,24.0251645 C96.3323527,24.5602651 93.17739,28.2467503 93.3214191,28.387342 C93.4389502,28.5015195 93.5966556,28.4163124 93.705639,28.422703 C93.9813029,28.4405964 97.0542075,24.0839574 97.2533693,24.0251645 C97.6709253,23.9011882 98.278668,23.9689278 98.2158423,24.1065373 C97.0076224,25.5968095 95.8703485,27.0649278 94.874112,28.7652355 C95.2925228,28.9207385 96.3746639,28.4333538 96.3165394,29.0502533 C96.2887593,29.8456615 95.773332,30.5682178 95.2801286,30.8366201 C94.9642905,31.0078864 94.6565726,30.7011408 94.4928838,31.0611408 C95.4186017,31.6490698 95.3318423,33.403484 94.4928838,34.4783716 C94.2740622,34.7574249 94.9942075,34.8899219 95.4968133,34.8477444 C97.6709253,30.5682178 105.492515,34.3501349 101.813577,36.2894485 Z M35.9128091,41.3984663 L39.3207842,41.5850698 L39.3207842,47.1239574 C39.3207842,47.6386083 39.1421369,48.0629396 38.7728755,48.4229396 C38.4040415,48.7842178 37.9668257,48.9588923 37.437722,48.9588923 L36.0551286,48.9588923 C35.5208963,48.9588923 35.0836805,48.7842178 34.7178382,48.4229396 C34.3515685,48.0591053 34.1724938,47.6300876 34.1724938,47.1107503 L34.1724938,43.2372355 C34.1724938,42.738774 34.3447303,42.3123124 34.7003154,41.9365491 C35.0417967,41.5739929 35.4272988,41.4035787 35.9128091,41.3984663 Z" mask="url(#b)"/>
    </g>
  </g>
</svg>
